<svg xmlns="http://www.w3.org/2000/svg" xmlns:svg="http://www.w3.org/2000/svg" id="svg136" width="623.351" height="50mm" version="1.1" viewBox="0 0 164.928 50"><metadata id="metadata133"/><g id="layer1" transform="translate(35.595132,-28.583333)"><g id="g916"><rect style="opacity:1;fill:#fff;fill-opacity:1;fill-rule:nonzero;stroke:none;stroke-width:.06964578;stroke-miterlimit:4;stroke-dasharray:none;stroke-opacity:1" id="rect1230" width="164.928" height="50" x="-35.595" y="28.583" ry=".884"/><g id="g900"><path id="path5858" d="m 115.10364,53.456202 c 0,8.83661 -7.16345,16.000066 -16,16.000066 -8.83655,0 -16,-7.163456 -16,-16.000066 14.84336,0 20.28083,0 32,0 z" style="fill:#000;fill-opacity:1;stroke:none;stroke-width:1.0995661;stroke-miterlimit:4;stroke-dasharray:none;stroke-opacity:1"/><rect id="rect5860" width="32" height="16" x="83.104" y="37.703" style="fill:#000;fill-opacity:1;stroke:none;stroke-width:.88858891;stroke-miterlimit:4;stroke-dasharray:none;stroke-opacity:1"/><path style="fill:#000;fill-opacity:1;fill-rule:nonzero;stroke:#fff;stroke-width:.5;stroke-linecap:butt;stroke-linejoin:miter;stroke-miterlimit:4;stroke-dasharray:none;stroke-opacity:1" id="path5862" d="m 83.10364,53.456202 c 32,0 32,0 32,0"/></g><g id="g888"><circle id="circle5866" cx="-5.366" cy="53.58" r="16" style="fill:#000;fill-opacity:.94117647;stroke:none;stroke-width:1.0995661;stroke-miterlimit:4;stroke-dasharray:none;stroke-opacity:1"/><path id="path5868" d="m -21.365547,53.579662 c 32,0 32,0 32,0" style="fill:#000;fill-opacity:1;fill-rule:nonzero;stroke:#fff;stroke-width:.5;stroke-linecap:butt;stroke-linejoin:miter;stroke-miterlimit:4;stroke-dasharray:none;stroke-opacity:1"/></g><g id="g895"><path id="path5872" d="m 30.869043,37.56204 c 15.34011,15.3401 15.78872,15.7887 32,31.99998 h -32 z" style="fill:#fff;fill-opacity:1;stroke:none;stroke-width:.96187651;stroke-miterlimit:4;stroke-dasharray:none;stroke-opacity:1"/><path style="fill:maroon;fill-opacity:1;stroke:none;stroke-width:.96187651;stroke-miterlimit:4;stroke-dasharray:none;stroke-opacity:1" id="path5874" d="m 62.869043,37.56204 c -15.34011,15.3401 -15.78872,15.7887 -32,31.99998 h 32 z"/><path style="fill:maroon;fill-opacity:1;stroke:none;stroke-width:.96187651;stroke-miterlimit:4;stroke-dasharray:none;stroke-opacity:1" id="path5876" d="m 30.869043,37.56204 c 15.34011,15.3401 15.78872,15.7887 32,31.99998 h -32 z"/><path id="path5878" d="m 46.873473,53.55438 15.99557,16.00764" style="fill:#000;fill-opacity:1;fill-rule:nonzero;stroke:#fff;stroke-width:.5;stroke-linecap:butt;stroke-linejoin:miter;stroke-miterlimit:4;stroke-dasharray:none;stroke-opacity:1"/><path style="fill:#000;fill-opacity:1;fill-rule:nonzero;stroke:#fff;stroke-width:.5;stroke-linecap:butt;stroke-linejoin:miter;stroke-miterlimit:4;stroke-dasharray:none;stroke-opacity:1" id="path5880" d="M 46.873473,53.55454 30.86922,69.54221"/></g></g></g></svg>