<?xml version="1.0" encoding="UTF-8" standalone="no"?>
<!-- Creator: CorelDRAW -->

<svg
   xmlns:dc="http://purl.org/dc/elements/1.1/"
   xmlns:cc="http://creativecommons.org/ns#"
   xmlns:rdf="http://www.w3.org/1999/02/22-rdf-syntax-ns#"
   xmlns:svg="http://www.w3.org/2000/svg"
   xmlns="http://www.w3.org/2000/svg"
   xmlns:sodipodi="http://sodipodi.sourceforge.net/DTD/sodipodi-0.dtd"
   xmlns:inkscape="http://www.inkscape.org/namespaces/inkscape"
   xml:space="preserve"
   width="225.88116mm"
   height="208.44618mm"
   style="clip-rule:evenodd;fill-rule:evenodd;image-rendering:optimizeQuality;shape-rendering:geometricPrecision;text-rendering:geometricPrecision"
   viewBox="0 0 225.88117 208.44618"
   version="1.1"
   id="svg32"
   sodipodi:docname="baum-icon.svg"
   inkscape:version="0.92.3 (2405546, 2018-03-11)"><metadata
     id="metadata36"><rdf:RDF><cc:Work
         rdf:about=""><dc:format>image/svg+xml</dc:format><dc:type
           rdf:resource="http://purl.org/dc/dcmitype/StillImage" /><dc:title></dc:title></cc:Work></rdf:RDF></metadata><sodipodi:namedview
     pagecolor="#ffffff"
     bordercolor="#666666"
     borderopacity="1"
     objecttolerance="10"
     gridtolerance="10"
     guidetolerance="10"
     inkscape:pageopacity="0"
     inkscape:pageshadow="2"
     inkscape:window-width="2560"
     inkscape:window-height="1376"
     id="namedview34"
     showgrid="false"
     inkscape:zoom="0.93879224"
     inkscape:cx="87.949062"
     inkscape:cy="421.12976"
     inkscape:window-x="0"
     inkscape:window-y="27"
     inkscape:window-maximized="1"
     inkscape:current-layer="svg32"
     fit-margin-top="0"
     fit-margin-left="0"
     fit-margin-right="0"
     fit-margin-bottom="0"
     inkscape:showpageshadow="false"
     showborder="false" /><defs
     id="defs4"><style
       type="text/css"
       id="style2"><![CDATA[
    .fil1 {fill:#CC3366}
    .fil2 {fill:white}
    .fil0 {fill:#CC3366;fill-rule:nonzero}
   ]]></style></defs><g
     id="g999"
     transform="translate(0.207088,0.1408136)"><path
       style="fill:#cc3366;fill-rule:nonzero"
       inkscape:connector-curvature="0"
       d="m 66.912515,1.5955864 c 3.5841,0.175 7.164,1.2097 9.3863,4.1912 2.546,3.4173 2.1251,7.9863996 0.933,11.7526996 -0.975,2.463 -2.223,4.083 -3.428,5.801297 -1.205,1.7182 -2.5302,2.9598 -3.659,4.0374 -1.2254,1.1782 -2.4292,2.1616 -3.6113,2.9503 -0.0534,0.1175 -0.1233,0.2261 -0.2067,0.3229 0.665,0.7506 1.168,1.6862 1.5091,2.8068 1.5476,5.1583 -0.9556,12.4746 -4.0727,16.5053 -2.7725,3.5847 -6.8713,6.2904 -11.2813,7.3531 -2.1294,0.5131 -4.2715,0.7696 -6.4265,0.7696 h -27.3986 l 0.0242,-0.0604 h -2.9324 c -0.7401,0 -1.3454,-0.6054 -1.3454,-1.3454 v -2e-4 c 0,-0.74 0.6053,-1.3454 1.3454,-1.3454 h 28.4882 c 0.7281,-0.014 1.3196,-0.6138 1.3196,-1.3451 v -2e-4 c 0,-0.707 -0.5527,-1.2911 -1.2473,-1.3418 H 8.4142152 c -0.7401,0 -1.3454,-0.6053 -1.3454,-1.3454 v -1e-4 c 0,-0.7401 0.6053,-1.3454 1.3454,-1.3454 H 21.908615 l 0.0133,-0.0333 c 0.0753,0.0177 0.153,0.029 0.2325,0.0333 h 27.9139 c 0.0242,0 0.0483,7e-4 0.0722,0.002 h 2.0816 c 0.74,0 1.3454,-0.6054 1.3454,-1.3454 v -2e-4 c 0,-0.74 -0.6054,-1.3454 -1.3454,-1.3454 h -29.2379 l 10e-5,-2e-4 h -6.9014 c -0.74,0 -1.3454,-0.6054 -1.3454,-1.3454 v -2e-4 c 0,-0.74 0.6054,-1.3454 1.3454,-1.3454 h 7.9778 l 1e-4,-2e-4 h 22.9648 c 0.74,0 1.3455,-0.6054 1.3455,-1.3454 v -2e-4 c 0,-0.74 -0.6055,-1.3454 -1.3455,-1.3454 h -21.8884 l 2e-4,-4e-4 h -6.9618 c -0.74,0 -1.3454,-0.6053 -1.3454,-1.3453 v -2e-4 c 0,-0.7401 0.6054,-1.3454 1.3454,-1.3454 h 30.5449 c 0.7185,-0.0249 1.2986,-0.6202 1.2986,-1.3445 v -2e-4 c 0,-0.74 -0.6055,-1.3454 -1.3455,-1.3454 h -21.3838 l 6e-4,-10e-4 h -12.5471 c -0.74,0 -1.3454,-0.6054 -1.3454,-1.3454 v -2e-4 c 0,-0.74 0.6054,-1.3454 1.3454,-1.3454 h 26.4712 c 0.7094,-0.035 1.279,-0.6259 1.279,-1.3437 v -2e-4 c 0,-0.74 -0.6055,-1.3453 -1.3455,-1.3453 h -11.7056 l 6e-4,-10e-4 h -5.7895 c -0.7401,0 -1.3455,-0.6054 -1.3455,-1.3454 v -2e-4 c 0,-0.7034 0.5471,-1.2853 1.2369,-1.341 h 23.4971 c 0.74,0 1.3454,-0.6054 1.3454,-1.3454 v -2e-4 c 0,-0.74 -0.6054,-1.3454 -1.3454,-1.3454 h -15.448 l 5e-4,-0.001 H 5.2195152 c -0.7401,0 -1.3454,-0.6054 -1.3454,-1.3454 v -2e-4 c 0,-0.74 0.6053,-1.3454 1.3454,-1.3454 H 46.873515 c 0.0314,0 0.0625,0.001 0.0934,0.003 h 8.7243 c 0.7399,0 1.3453,-0.6054 1.3453,-1.345397 v -2e-4 c 0,-0.74 -0.6054,-1.3454 -1.3453,-1.3454 h -21.9452 l 6e-4,-0.0015 h -8.4572 c -0.74,0 -1.3454,-0.6053 -1.3454,-1.3454 v -10e-5 c 0,-0.7401 0.6054,-1.3454 1.3454,-1.3454 h 25.1617 c 0.7151,-0.0287 1.2911,-0.6224 1.2911,-1.3442 v -2e-4 c 0,-0.74 -0.6054,-1.3454 -1.3454,-1.3454 h -14.4979 l 0.0018,-0.0046 h -20.4423 c -0.7401,0 -1.3454,-0.6053 -1.3454,-1.3454 v -2e-4 c 0,-0.74 0.6053,-1.3453 1.3454,-1.3453 h 21.5186 l 8e-4,-0.0019 h 24.4984 c 0.7401,0 1.3455,-0.6053 1.3455,-1.3454 v -10e-5 c 0,-0.7236 -0.5788,-1.3181996 -1.2962,-1.3443996 h -40.616 c -0.74,0 -1.3454,-0.6054 -1.3454,-1.3454 v -2e-4 c 0,-0.74 0.6054,-1.3454 1.3454,-1.3454 h 18.2207 l 10e-4,-0.0026 h 15.4336 c 0.74,0 1.3455,-0.6053 1.3455,-1.3454 v -10e-5 c 0,-0.7314 -0.5915,-1.3311 -1.3196,-1.3451 h -38.9045 c -0.7401,0 -1.3455,-0.6053 -1.3455,-1.3454 v -1e-4 c 0,-0.7401 0.6054,-1.3454 1.3455,-1.3454 h 25.5976 16.0564 9.5723 z"
       class="fil0"
       id="_458450384" /><path
       style="fill:#cc3366;fill-rule:nonzero"
       inkscape:connector-curvature="0"
       d="m 108.61812,1.4585864 c 6.9283,0.2545 10.5141,2.3677 13.7512,6.8761 2.8263,3.9361996 0.9894,11.1786996 0.0815,13.5360996 l -15.7089,35.380797 H 91.479215 l 5.5565,-22.4052 -15.9627,22.4052 h -15.3372 l 18.983,-42.982597 c 4.4403,-10.0539996 14.256,-13.1647996 23.899305,-12.8103996 z m 65.3903,0.0534 -20.0248,45.5774966 c -2.4042,5.4722 -6.6575,9.6425 -13.9898,10.5791 -5.8152,0.743 -14.1434,0.8925 -18.8389,-2.9577 -3.5848,-2.9395 -3.2078,-9.9094 -1.6938,-14.0397 l 17.1996,-39.1591966 h 13.4896 l -5.5984,22.3532966 c 0,0 15.9391,-22.3532966 15.9391,-22.3532966 z"
       class="fil0"
       id="_458450360" /><g
       transform="translate(-0.2068851,-0.1408136)"
       id="g12"><path
         style="fill:#cc3366"
         inkscape:connector-curvature="0"
         d="m 12.4127,32.5214 c 1.5647,0 2.8332,1.2685 2.8332,2.8332 0,1.5647 -1.2685,2.8332 -2.8332,2.8332 -1.5647,0 -2.8332,-1.2685 -2.8332,-2.8332 0,-1.5647 1.2685,-2.8332 2.8332,-2.8332 z m 0,1.4167 c 0.7823,0 1.4165,0.6342 1.4165,1.4165 0,0.7824 -0.6342,1.4165 -1.4165,1.4165 -0.7824,0 -1.4165,-0.6341 -1.4165,-1.4165 0,-0.7823 0.6341,-1.4165 1.4165,-1.4165 z"
         class="fil1"
         id="_458450792" /><circle
         style="fill:#ffffff"
         r="1.4166"
         cy="35.354599"
         cx="12.4127"
         class="fil2"
         id="_458453720" /></g><g
       transform="translate(-0.2068851,-0.1408136)"
       id="g16"><path
         style="fill:#cc3366"
         inkscape:connector-curvature="0"
         d="m 5.9695,48.4748 c 1.5647,0 2.8332,1.2685 2.8332,2.8332 0,1.5647 -1.2685,2.8332 -2.8332,2.8332 -1.5647,0 -2.8332,-1.2685 -2.8332,-2.8332 0,-1.5647 1.2685,-2.8332 2.8332,-2.8332 z m 0,1.4167 c 0.7823,0 1.4165,0.6342 1.4165,1.4165 0,0.7824 -0.6342,1.4165 -1.4165,1.4165 -0.7824,0 -1.4165,-0.6341 -1.4165,-1.4165 0,-0.7823 0.6341,-1.4165 1.4165,-1.4165 z"
         class="fil1"
         id="_458460200" /><circle
         style="fill:#ffffff"
         r="1.4166"
         cy="51.307999"
         cx="5.96945"
         class="fil2"
         id="_458462024" /></g><g
       transform="translate(-0.2068851,-0.1408136)"
       id="g20"><path
         style="fill:#cc3366"
         inkscape:connector-curvature="0"
         d="m 2.833,21.5635 c 1.5647,0 2.8332,1.2685 2.8332,2.8332 0,1.5647 -1.2685,2.8332 -2.8332,2.8332 -1.5647,0 -2.8332,-1.2685 -2.8332,-2.8332 0,-1.5647 1.2685,-2.8332 2.8332,-2.8332 z m 0,1.4167 c 0.7823,0 1.4165,0.6342 1.4165,1.4165 0,0.7824 -0.6342,1.4165 -1.4165,1.4165 -0.7824,0 -1.4165,-0.6341 -1.4165,-1.4165 0,-0.7823 0.6341,-1.4165 1.4165,-1.4165 z"
         class="fil1"
         id="_458461808" /><circle
         style="fill:#ffffff"
         r="1.4166"
         cy="24.3967"
         cx="2.8329501"
         class="fil2"
         id="_458460512" /></g><g
       transform="translate(-0.2068851,-0.1408136)"
       id="g24"><path
         style="fill:#cc3366"
         inkscape:connector-curvature="0"
         d="m 13.0282,10.8478 c 1.5647,0 2.8332,1.2685 2.8332,2.8332 0,1.5647 -1.2685,2.8332 -2.8332,2.8332 -1.5647,0 -2.8332,-1.2685 -2.8332,-2.8332 0,-1.5647 1.2685,-2.8332 2.8332,-2.8332 z m 0,1.4167 c 0.7823,0 1.4165,0.6342 1.4165,1.4165 0,0.7824 -0.6342,1.4165 -1.4165,1.4165 -0.7824,0 -1.4165,-0.6341 -1.4165,-1.4165 0,-0.7823 0.6341,-1.4165 1.4165,-1.4165 z"
         class="fil1"
         id="_458460368" /><circle
         style="fill:#ffffff"
         r="1.4166"
         cy="13.681"
         cx="13.0282"
         class="fil2"
         id="_458461016" /></g><g
       transform="translate(-0.2068851,-0.1408136)"
       id="g28"><path
         style="fill:#cc3366"
         inkscape:connector-curvature="0"
         d="m 13.34,0 c 1.5647,0 2.8332,1.2685 2.8332,2.8332 0,1.5647 -1.2685,2.8332 -2.8332,2.8332 -1.5647,0 -2.8332,-1.2685 -2.8332,-2.8332 C 10.5068,1.2685 11.7753,0 13.34,0 Z m 0,1.4167 c 0.7823,0 1.4165,0.6342 1.4165,1.4165 0,0.7824 -0.6342,1.4165 -1.4165,1.4165 -0.7824,0 -1.4165,-0.6341 -1.4165,-1.4165 0,-0.7823 0.6341,-1.4165 1.4165,-1.4165 z"
         class="fil1"
         id="_458459840" /><circle
         style="fill:#ffffff"
         r="1.4166"
         cy="2.83325"
         cx="13.34"
         class="fil2"
         id="_458460080" /></g><path
       sodipodi:nodetypes="ccccccccccc"
       inkscape:connector-curvature="0"
       id="path924"
       d="m 155.42209,57.780083 24.5004,-55.4226956 23.56485,4.9e-5 22.18674,-4.9e-5 -25.01239,55.7395956 -10.78049,0.27283 3.66384,-19.44653 -11.55519,12.96436 -0.28184,-14.65536 -13.80985,20.29204 z"
       style="fill:#cc3366;fill-opacity:1;stroke:none;stroke-width:0.26458332px;stroke-linecap:butt;stroke-linejoin:miter;stroke-opacity:1" /><path
       id="path44"
       class="fil0"
       d="m 66.912515,1.5955864 c 3.5841,0.175 7.164,1.2097 9.3863,4.1912 2.546,3.4173 2.1251,7.9863996 0.933,11.7526996 -0.975,2.463 -2.223,4.083 -3.428,5.801297 -1.205,1.7182 -2.5302,2.9598 -3.659,4.0374 -1.2254,1.1782 -2.4292,2.1616 -3.6113,2.9503 -0.0534,0.1175 -0.1233,0.2261 -0.2067,0.3229 0.665,0.7506 1.168,1.6862 1.5091,2.8068 1.5476,5.1583 -0.9556,12.4746 -4.0727,16.5053 -2.7725,3.5847 -6.8713,6.2904 -11.2813,7.3531 -2.1294,0.5131 -4.2715,0.7696 -6.4265,0.7696 h -27.3986 l 0.0242,-0.0604 h -2.9324 c -0.7401,0 -1.3454,-0.6054 -1.3454,-1.3454 v -2e-4 c 0,-0.74 0.6053,-1.3454 1.3454,-1.3454 h 28.4882 c 0.7281,-0.014 1.3196,-0.6138 1.3196,-1.3451 v -2e-4 c 0,-0.707 -0.5527,-1.2911 -1.2473,-1.3418 H 8.4142152 c -0.7401,0 -1.3454,-0.6053 -1.3454,-1.3454 v -1e-4 c 0,-0.7401 0.6053,-1.3454 1.3454,-1.3454 H 21.908615 l 0.0133,-0.0333 c 0.0753,0.0177 0.153,0.029 0.2325,0.0333 h 27.9139 c 0.0242,0 0.0483,7e-4 0.0722,0.002 h 2.0816 c 0.74,0 1.3454,-0.6054 1.3454,-1.3454 v -2e-4 c 0,-0.74 -0.6054,-1.3454 -1.3454,-1.3454 h -29.2379 l 10e-5,-2e-4 h -6.9014 c -0.74,0 -1.3454,-0.6054 -1.3454,-1.3454 v -2e-4 c 0,-0.74 0.6054,-1.3454 1.3454,-1.3454 h 7.9778 l 1e-4,-2e-4 h 22.9648 c 0.74,0 1.3455,-0.6054 1.3455,-1.3454 v -2e-4 c 0,-0.74 -0.6055,-1.3454 -1.3455,-1.3454 h -21.8884 l 2e-4,-4e-4 h -6.9618 c -0.74,0 -1.3454,-0.6053 -1.3454,-1.3453 v -2e-4 c 0,-0.7401 0.6054,-1.3454 1.3454,-1.3454 h 30.5449 c 0.7185,-0.0249 1.2986,-0.6202 1.2986,-1.3445 v -2e-4 c 0,-0.74 -0.6055,-1.3454 -1.3455,-1.3454 h -21.3838 l 6e-4,-10e-4 h -12.5471 c -0.74,0 -1.3454,-0.6054 -1.3454,-1.3454 v -2e-4 c 0,-0.74 0.6054,-1.3454 1.3454,-1.3454 h 26.4712 c 0.7094,-0.035 1.279,-0.6259 1.279,-1.3437 v -2e-4 c 0,-0.74 -0.6055,-1.3453 -1.3455,-1.3453 h -11.7056 l 6e-4,-10e-4 h -5.7895 c -0.7401,0 -1.3455,-0.6054 -1.3455,-1.3454 v -2e-4 c 0,-0.7034 0.5471,-1.2853 1.2369,-1.341 h 23.4971 c 0.74,0 1.3454,-0.6054 1.3454,-1.3454 v -2e-4 c 0,-0.74 -0.6054,-1.3454 -1.3454,-1.3454 h -15.448 l 5e-4,-0.001 H 5.2195152 c -0.7401,0 -1.3454,-0.6054 -1.3454,-1.3454 v -2e-4 c 0,-0.74 0.6053,-1.3454 1.3454,-1.3454 H 46.873515 c 0.0314,0 0.0625,0.001 0.0934,0.003 h 8.7243 c 0.7399,0 1.3453,-0.6054 1.3453,-1.345397 v -2e-4 c 0,-0.74 -0.6054,-1.3454 -1.3453,-1.3454 h -21.9452 l 6e-4,-0.0015 h -8.4572 c -0.74,0 -1.3454,-0.6053 -1.3454,-1.3454 v -10e-5 c 0,-0.7401 0.6054,-1.3454 1.3454,-1.3454 h 25.1617 c 0.7151,-0.0287 1.2911,-0.6224 1.2911,-1.3442 v -2e-4 c 0,-0.74 -0.6054,-1.3454 -1.3454,-1.3454 h -14.4979 l 0.0018,-0.0046 h -20.4423 c -0.7401,0 -1.3454,-0.6053 -1.3454,-1.3454 v -2e-4 c 0,-0.74 0.6053,-1.3453 1.3454,-1.3453 h 21.5186 l 8e-4,-0.0019 h 24.4984 c 0.7401,0 1.3455,-0.6053 1.3455,-1.3454 v -10e-5 c 0,-0.7236 -0.5788,-1.3181996 -1.2962,-1.3443996 h -40.616 c -0.74,0 -1.3454,-0.6054 -1.3454,-1.3454 v -2e-4 c 0,-0.74 0.6054,-1.3454 1.3454,-1.3454 h 18.2207 l 10e-4,-0.0026 h 15.4336 c 0.74,0 1.3455,-0.6053 1.3455,-1.3454 v -10e-5 c 0,-0.7314 -0.5915,-1.3311 -1.3196,-1.3451 h -38.9045 c -0.7401,0 -1.3455,-0.6053 -1.3455,-1.3454 v -1e-4 c 0,-0.7401 0.6054,-1.3454 1.3455,-1.3454 h 25.5976 16.0564 9.5723 z"
       inkscape:connector-curvature="0"
       style="fill:#cc3366;fill-rule:nonzero" /></g><circle
     id="circle99-3"
     class="fil2"
     cx="-107.00281"
     cy="131.9131"
     style="clip-rule:evenodd;fill:#ffffff;fill-rule:evenodd;image-rendering:optimizeQuality;shape-rendering:geometricPrecision;text-rendering:geometricPrecision"
     r="0" /><g
     id="g1124"
     transform="translate(17.11711,155.43121)"><g
       transform="translate(118.08834,-53.830248)"
       id="g1087"><g
         id="g1072"><g
           id="g978"><path
             style="fill:#000000;fill-rule:nonzero"
             inkscape:connector-curvature="0"
             d="m -68.085848,-24.896786 c 3.5841,0.175 7.164,1.2097 9.3863,4.1912 2.546,3.4173 2.1251,7.9864 0.933,11.7527001 -0.975,2.463 -2.223,4.083 -3.428,5.801297 -1.205,1.7182 -2.5302,2.95979998 -3.659,4.03739998 -1.2254,1.17820002 -2.4292,2.16160002 -3.6113,2.95030002 -0.0534,0.1175 -0.1233,0.2261 -0.2067,0.3229 0.665,0.7506 1.168,1.6862 1.5091,2.8068 1.5476,5.1582999 -0.9556,12.4745999 -4.0727,16.5052999 -2.7725,3.5847 -6.8713,6.2904 -11.2813,7.3531 -2.1294,0.5131 -4.2715,0.7696 -6.4265,0.7696 h -27.398602 l 0.0242,-0.0604 h -2.9324 c -0.7401,0 -1.3454,-0.6054 -1.3454,-1.3454 v -2e-4 c 0,-0.74 0.6053,-1.3454 1.3454,-1.3454 h 28.488202 c 0.7281,-0.014 1.3196,-0.6138 1.3196,-1.3451 v -2e-4 c 0,-0.707 -0.5527,-1.2911 -1.2473,-1.3418 h -35.894902 c -0.7401,0 -1.3454,-0.6053 -1.3454,-1.3454 v -10e-5 c 0,-0.7401 0.6053,-1.3454 1.3454,-1.3454 h 13.4944 l 0.0133,-0.0333 c 0.0753,0.0177 0.153,0.029 0.2325,0.0333 h 27.913902 c 0.0242,0 0.0483,7e-4 0.0722,0.002 h 2.0816 c 0.74,0 1.3454,-0.6054 1.3454,-1.3454 v -2e-4 c 0,-0.74 -0.6054,-1.3454 -1.3454,-1.3454 h -29.237902 l 1e-4,-2e-4 h -6.9014 c -0.74,0 -1.3454,-0.6054 -1.3454,-1.3454 v -2e-4 c 0,-0.74 0.6054,-1.3454 1.3454,-1.3454 h 7.9778 l 1e-4,-2e-4 h 22.964802 c 0.74,0 1.3455,-0.6054 1.3455,-1.3454 v -2e-4 c 0,-0.74 -0.6055,-1.3454 -1.3455,-1.3454 h -21.888402 l 2e-4,-4e-4 h -6.9618 c -0.74,0 -1.3454,-0.6053 -1.3454,-1.3453 v -2e-4 c 0,-0.7401 0.6054,-1.3454 1.3454,-1.3454 h 30.544902 c 0.7185,-0.0249 1.2986,-0.6202 1.2986,-1.3445 v -2e-4 c 0,-0.74 -0.6055,-1.3454 -1.3455,-1.3454 h -21.383802 l 6e-4,-10e-4 h -12.5471 c -0.74,0 -1.3454,-0.6053999 -1.3454,-1.3453999 v -2e-4 c 0,-0.74 0.6054,-1.3454 1.3454,-1.3454 h 26.471202 c 0.7094,-0.035 1.279,-0.6259 1.279,-1.3437 v -2e-4 c 0,-0.74 -0.6055,-1.3453 -1.3455,-1.3453 h -11.705602 l 6e-4,-0.001 h -5.7895 c -0.7401,0 -1.3455,-0.6054 -1.3455,-1.3454 v -2e-4 c 0,-0.7034 0.5471,-1.2853 1.2369,-1.341 h 23.497102 c 0.74,0 1.3454,-0.6054 1.3454,-1.34540002 v -2e-4 c 0,-0.74 -0.6054,-1.3454 -1.3454,-1.3454 h -15.448002 l 5e-4,-0.001 h -26.375 c -0.7401,0 -1.3454,-0.60539998 -1.3454,-1.34539998 v -2e-4 c 0,-0.74 0.6053,-1.3454 1.3454,-1.3454 h 41.654002 c 0.0314,0 0.0625,10e-4 0.0934,0.003 h 8.7243 c 0.7399,0 1.3453,-0.6054 1.3453,-1.345397 v -2e-4 c 0,-0.74 -0.6054,-1.3454 -1.3453,-1.3454 h -21.945202 l 6e-4,-0.0015 h -8.4572 c -0.74,0 -1.3454,-0.6053 -1.3454,-1.3454 v -10e-5 c 0,-0.7401 0.6054,-1.3454 1.3454,-1.3454 h 25.161702 c 0.7151,-0.0287 1.2911,-0.6224 1.2911,-1.3442001 v -2e-4 c 0,-0.74 -0.6054,-1.3454 -1.3454,-1.3454 h -14.4979 l 0.0018,-0.0046 h -20.442302 c -0.7401,0 -1.3454,-0.6053 -1.3454,-1.3454 v -2e-4 c 0,-0.74 0.6053,-1.3453 1.3454,-1.3453 h 21.518602 l 8e-4,-0.0019 h 24.4984 c 0.7401,0 1.3455,-0.6053 1.3455,-1.3454 v -10e-5 c 0,-0.7236 -0.5788,-1.3182 -1.2962,-1.3444 h -40.616002 c -0.74,0 -1.3454,-0.6054 -1.3454,-1.3454 v -2e-4 c 0,-0.74 0.6054,-1.3454 1.3454,-1.3454 h 18.220702 l 0.001,-0.0026 h 15.4336 c 0.74,0 1.3455,-0.6053 1.3455,-1.3454 v -10e-5 c 0,-0.7314 -0.5915,-1.3311 -1.3196,-1.3451 h -38.904502 c -0.7401,0 -1.3455,-0.6053 -1.3455,-1.3454 v -10e-5 c 0,-0.7401 0.6054,-1.3454 1.3455,-1.3454 h 25.597602 16.0564 9.5723 z"
             class="fil0"
             id="path71" /><path
             id="path73"
             class="fil1"
             d="m -122.79255,5.888214 c 1.5647,0 2.8332,1.2685 2.8332,2.8332 0,1.5647 -1.2685,2.8332 -2.8332,2.8332 -1.5647,0 -2.8332,-1.2685 -2.8332,-2.8332 0,-1.5647 1.2685,-2.8332 2.8332,-2.8332 z m 0,1.4167 c 0.7823,0 1.4165,0.6342 1.4165,1.4165 0,0.7824 -0.6342,1.4165 -1.4165,1.4165 -0.7824,0 -1.4165,-0.6341 -1.4165,-1.4165 0,-0.7823 0.6341,-1.4165 1.4165,-1.4165 z"
             inkscape:connector-curvature="0"
             style="fill:#000000" /><circle
             id="circle75"
             class="fil2"
             cx="-122.79255"
             cy="8.7214127"
             r="1.4166"
             style="fill:#ffffff" /><path
             id="path79"
             class="fil1"
             d="m -129.23575,21.841614 c 1.5647,0 2.8332,1.2685 2.8332,2.8332 0,1.5647 -1.2685,2.8332 -2.8332,2.8332 -1.5647,0 -2.8332,-1.2685 -2.8332,-2.8332 0,-1.5647 1.2685,-2.8332 2.8332,-2.8332 z m 0,1.4167 c 0.7823,0 1.4165,0.6342 1.4165,1.4165 0,0.7824 -0.6342,1.4165 -1.4165,1.4165 -0.7824,0 -1.4165,-0.6341 -1.4165,-1.4165 0,-0.7823 0.6341,-1.4165 1.4165,-1.4165 z"
             inkscape:connector-curvature="0"
             style="fill:#000000" /><circle
             id="circle81"
             class="fil2"
             cx="-129.23579"
             cy="24.674812"
             r="1.4166"
             style="fill:#ffffff" /><path
             id="path85"
             class="fil1"
             d="m -132.37225,-5.069686 c 1.5647,0 2.8332,1.2685 2.8332,2.8332 0,1.5647 -1.2685,2.8332 -2.8332,2.8332 -1.5647,0 -2.8332,-1.2685 -2.8332,-2.8332 0,-1.5647 1.2685,-2.8332 2.8332,-2.8332 z m 0,1.4167 c 0.7823,0 1.4165,0.6342 1.4165,1.4165 0,0.7824 -0.6342,1.4165 -1.4165,1.4165 -0.7824,0 -1.4165,-0.6341 -1.4165,-1.4165 0,-0.7823 0.6341,-1.4165 1.4165,-1.4165 z"
             inkscape:connector-curvature="0"
             style="fill:#000000" /><circle
             id="circle87"
             class="fil2"
             cx="-132.3723"
             cy="-2.2364862"
             r="1.4166"
             style="fill:#ffffff" /><path
             id="path91"
             class="fil1"
             d="m -122.17705,-15.785386 c 1.5647,0 2.8332,1.2685 2.8332,2.8332 0,1.5647 -1.2685,2.8332 -2.8332,2.8332 -1.5647,0 -2.8332,-1.2685 -2.8332,-2.8332 0,-1.5647 1.2685,-2.8332 2.8332,-2.8332 z m 0,1.4167 c 0.7823,0 1.4165,0.6342 1.4165,1.4165 0,0.7824 -0.6342,1.4165 -1.4165,1.4165 -0.7824,0 -1.4165,-0.6341 -1.4165,-1.4165 0,-0.7823 0.6341,-1.4165 1.4165,-1.4165 z"
             inkscape:connector-curvature="0"
             style="fill:#000000" /><circle
             id="circle93"
             class="fil2"
             cx="-122.17705"
             cy="-12.952187"
             r="1.4166"
             style="fill:#ffffff" /><path
             id="path97"
             class="fil1"
             d="m -121.86525,-26.633186 c 1.5647,0 2.8332,1.2685 2.8332,2.8332 0,1.5647 -1.2685,2.8332 -2.8332,2.8332 -1.5647,0 -2.8332,-1.2685 -2.8332,-2.8332 0,-1.5647 1.2685,-2.8332 2.8332,-2.8332 z m 0,1.4167 c 0.7823,0 1.4165,0.6342 1.4165,1.4165 0,0.7824 -0.6342,1.4165 -1.4165,1.4165 -0.7824,0 -1.4165,-0.6341 -1.4165,-1.4165 0,-0.7823 0.6341,-1.4165 1.4165,-1.4165 z"
             inkscape:connector-curvature="0"
             style="fill:#000000" /><circle
             id="circle99"
             class="fil2"
             cx="-121.86525"
             cy="-23.799936"
             style="fill:#ffffff"
             r="1.4166" /></g></g></g><path
       id="path1003"
       class="fil0"
       d="m 91.708096,-78.864034 c 6.9283,0.2545 10.514104,2.3677 13.751204,6.8761 2.8263,3.9362 0.9894,11.1787 0.0815,13.5361 L 89.831896,-23.071037 H 74.569191 l 5.5565,-22.4052 -15.9627,22.4052 h -15.3372 l 18.983,-42.982597 c 4.4403,-10.054 14.256,-13.1648 23.899305,-12.8104 z m 65.390304,0.0534 -20.0248,45.577497 c -2.4042,5.4722 -6.6575,9.6425 -13.9898,10.5791 -5.8152,0.743 -14.1434,0.8925 -18.8389,-2.9577 -3.5848,-2.9395 -3.2078,-9.9094 -1.6938,-14.0397 l 17.1996,-39.159197 h 13.4896 l -5.5984,22.353297 c 0,0 15.9391,-22.353297 15.9391,-22.353297 z"
       inkscape:connector-curvature="0"
       style="fill:#000000;fill-rule:nonzero" /><path
       style="fill:#000000;fill-opacity:1;stroke:none;stroke-width:0.26458332px;stroke-linecap:butt;stroke-linejoin:miter;stroke-opacity:1"
       d="m 138.51207,-22.542537 24.5004,-55.422696 23.56485,4.9e-5 22.18674,-4.9e-5 -25.01239,55.739596 -10.78049,0.27283 3.66384,-19.44653 -11.55519,12.96436 -0.28184,-14.65536 -13.80985,20.29204 z"
       id="path1035"
       inkscape:connector-curvature="0"
       sodipodi:nodetypes="ccccccccccc" /></g><g
     id="g1225"
     transform="translate(277.81332,219.40747)"><path
       style="fill:#0088aa;fill-rule:nonzero"
       inkscape:connector-curvature="0"
       d="m -210.69372,-67.735518 c 3.5841,0.175 7.164,1.2097 9.3863,4.1912 2.546,3.4173 2.1251,7.9864 0.933,11.7527 -0.975,2.463 -2.223,4.083 -3.428,5.801297 -1.205,1.7182 -2.5302,2.9598 -3.659,4.0374 -1.2254,1.1782 -2.4292,2.1616 -3.6113,2.9503 -0.0534,0.1175 -0.1233,0.2261 -0.2067,0.3229 0.665,0.7506 1.168,1.6862 1.5091,2.8068 1.5476,5.1583 -0.9556,12.4746 -4.0727,16.5053 -2.7725,3.5847 -6.8713,6.2904 -11.2813,7.3531 -2.1294,0.5131 -4.2715,0.7696 -6.4265,0.7696 h -27.3986 l 0.0242,-0.0604 h -2.9324 c -0.7401,0 -1.3454,-0.6054 -1.3454,-1.3454 v -2e-4 c 0,-0.74 0.6053,-1.3454 1.3454,-1.3454 h 28.4882 c 0.7281,-0.014 1.3196,-0.6138 1.3196,-1.3451 v -2e-4 c 0,-0.707 -0.5527,-1.2911 -1.2473,-1.3418 h -35.8949 c -0.7401,0 -1.3454,-0.6053 -1.3454,-1.3454 v -10e-5 c 0,-0.7401 0.6053,-1.3454 1.3454,-1.3454 h 13.4944 l 0.0133,-0.0333 c 0.0753,0.0177 0.153,0.029 0.2325,0.0333 h 27.9139 c 0.0242,0 0.0483,7e-4 0.0722,0.002 h 2.0816 c 0.74,0 1.3454,-0.6054 1.3454,-1.3454 v -2e-4 c 0,-0.74 -0.6054,-1.3454 -1.3454,-1.3454 h -29.2379 l 1e-4,-2e-4 h -6.9014 c -0.74,0 -1.3454,-0.6054 -1.3454,-1.3454 v -2e-4 c 0,-0.74 0.6054,-1.3454 1.3454,-1.3454 h 7.9778 l 1e-4,-2e-4 h 22.9648 c 0.74,0 1.3455,-0.6054 1.3455,-1.3454 v -2e-4 c 0,-0.74 -0.6055,-1.3454 -1.3455,-1.3454 h -21.8884 l 2e-4,-4e-4 h -6.9618 c -0.74,0 -1.3454,-0.6053 -1.3454,-1.3453 v -2e-4 c 0,-0.7401 0.6054,-1.3454 1.3454,-1.3454 h 30.5449 c 0.7185,-0.0249 1.2986,-0.6202 1.2986,-1.3445 v -2e-4 c 0,-0.74 -0.6055,-1.3454 -1.3455,-1.3454 h -21.3838 l 6e-4,-0.001 h -12.5471 c -0.74,0 -1.3454,-0.6054 -1.3454,-1.3454 v -2e-4 c 0,-0.74 0.6054,-1.3454 1.3454,-1.3454 h 26.4712 c 0.7094,-0.035 1.279,-0.6259 1.279,-1.3437 v -2e-4 c 0,-0.74 -0.6055,-1.3453 -1.3455,-1.3453 h -11.7056 l 6e-4,-0.001 h -5.7895 c -0.7401,0 -1.3455,-0.6054 -1.3455,-1.3454 v -2e-4 c 0,-0.7034 0.5471,-1.2853 1.2369,-1.341 h 23.4971 c 0.74,0 1.3454,-0.6054 1.3454,-1.3454 v -2e-4 c 0,-0.74 -0.6054,-1.3454 -1.3454,-1.3454 h -15.448 l 5e-4,-0.001 h -26.375 c -0.7401,0 -1.3454,-0.6054 -1.3454,-1.3454 v -2e-4 c 0,-0.74 0.6053,-1.3454 1.3454,-1.3454 h 41.654 c 0.0314,0 0.0625,10e-4 0.0934,0.003 h 8.7243 c 0.7399,0 1.3453,-0.6054 1.3453,-1.345397 v -2e-4 c 0,-0.74 -0.6054,-1.3454 -1.3453,-1.3454 h -21.9452 l 6e-4,-0.0015 h -8.4572 c -0.74,0 -1.3454,-0.6053 -1.3454,-1.3454 v -1e-4 c 0,-0.7401 0.6054,-1.3454 1.3454,-1.3454 h 25.1617 c 0.7151,-0.0287 1.2911,-0.6224 1.2911,-1.3442 v -2e-4 c 0,-0.74 -0.6054,-1.3454 -1.3454,-1.3454 h -14.4979 l 0.002,-0.0046 h -20.4423 c -0.7401,0 -1.3454,-0.6053 -1.3454,-1.3454 v -2e-4 c 0,-0.74 0.6053,-1.3453 1.3454,-1.3453 h 21.5186 l 8e-4,-0.0019 h 24.4984 c 0.7401,0 1.3455,-0.6053 1.3455,-1.3454 v -1e-4 c 0,-0.7236 -0.5788,-1.3182 -1.2962,-1.3444 h -40.616 c -0.74,0 -1.3454,-0.6054 -1.3454,-1.3454 v -2e-4 c 0,-0.74 0.6054,-1.3454 1.3454,-1.3454 h 18.2207 l 0.001,-0.0026 h 15.4336 c 0.74,0 1.3455,-0.6053 1.3455,-1.3454 v -10e-5 c 0,-0.7314 -0.5915,-1.3311 -1.3196,-1.3451 h -38.9045 c -0.7401,0 -1.3455,-0.6053 -1.3455,-1.3454 v -10e-5 c 0,-0.7401 0.6054,-1.3454 1.3455,-1.3454 h 25.5976 16.0564 9.5723 z"
       class="fil0"
       id="path1126" /><path
       id="path1128"
       class="fil1"
       d="m -265.40042,-36.950518 c 1.5647,0 2.8332,1.2685 2.8332,2.8332 0,1.5647 -1.2685,2.8332 -2.8332,2.8332 -1.5647,0 -2.8332,-1.2685 -2.8332,-2.8332 0,-1.5647 1.2685,-2.8332 2.8332,-2.8332 z m 0,1.4167 c 0.7823,0 1.4165,0.6342 1.4165,1.4165 0,0.7824 -0.6342,1.4165 -1.4165,1.4165 -0.7824,0 -1.4165,-0.6341 -1.4165,-1.4165 0,-0.7823 0.6341,-1.4165 1.4165,-1.4165 z"
       inkscape:connector-curvature="0"
       style="fill:#0088aa" /><circle
       id="circle1130"
       class="fil2"
       cx="-265.40042"
       cy="-34.117321"
       r="1.4166"
       style="fill:#ffffff" /><path
       id="path1132"
       class="fil1"
       d="m -271.84362,-20.997118 c 1.5647,0 2.8332,1.2685 2.8332,2.8332 0,1.5647 -1.2685,2.8332 -2.8332,2.8332 -1.5647,0 -2.8332,-1.2685 -2.8332,-2.8332 0,-1.5647 1.2685,-2.8332 2.8332,-2.8332 z m 0,1.4167 c 0.7823,0 1.4165,0.6342 1.4165,1.4165 0,0.7824 -0.6342,1.4165 -1.4165,1.4165 -0.7824,0 -1.4165,-0.6341 -1.4165,-1.4165 0,-0.7823 0.6341,-1.4165 1.4165,-1.4165 z"
       inkscape:connector-curvature="0"
       style="fill:#0088aa" /><circle
       id="circle1134"
       class="fil2"
       cx="-271.84366"
       cy="-18.163919"
       r="1.4166"
       style="fill:#ffffff" /><path
       id="path1136"
       class="fil1"
       d="m -274.98012,-47.908418 c 1.5647,0 2.8332,1.2685 2.8332,2.8332 0,1.5647 -1.2685,2.8332 -2.8332,2.8332 -1.5647,0 -2.8332,-1.2685 -2.8332,-2.8332 0,-1.5647 1.2685,-2.8332 2.8332,-2.8332 z m 0,1.4167 c 0.7823,0 1.4165,0.6342 1.4165,1.4165 0,0.7824 -0.6342,1.4165 -1.4165,1.4165 -0.7824,0 -1.4165,-0.6341 -1.4165,-1.4165 0,-0.7823 0.6341,-1.4165 1.4165,-1.4165 z"
       inkscape:connector-curvature="0"
       style="fill:#0088aa" /><circle
       id="circle1138"
       class="fil2"
       cx="-274.98016"
       cy="-45.075218"
       r="1.4166"
       style="fill:#ffffff" /><path
       id="path1140"
       class="fil1"
       d="m -264.78492,-58.624118 c 1.5647,0 2.8332,1.2685 2.8332,2.8332 0,1.5647 -1.2685,2.8332 -2.8332,2.8332 -1.5647,0 -2.8332,-1.2685 -2.8332,-2.8332 0,-1.5647 1.2685,-2.8332 2.8332,-2.8332 z m 0,1.4167 c 0.7823,0 1.4165,0.6342 1.4165,1.4165 0,0.7824 -0.6342,1.4165 -1.4165,1.4165 -0.7824,0 -1.4165,-0.6341 -1.4165,-1.4165 0,-0.7823 0.6341,-1.4165 1.4165,-1.4165 z"
       inkscape:connector-curvature="0"
       style="fill:#0088aa" /><circle
       id="circle1142"
       class="fil2"
       cx="-264.78491"
       cy="-55.79092"
       r="1.4166"
       style="fill:#ffffff" /><path
       id="path1144"
       class="fil1"
       d="m -264.47312,-69.471918 c 1.5647,0 2.8332,1.2685 2.8332,2.8332 0,1.5647 -1.2685,2.8332 -2.8332,2.8332 -1.5647,0 -2.8332,-1.2685 -2.8332,-2.8332 0,-1.5647 1.2685,-2.8332 2.8332,-2.8332 z m 0,1.4167 c 0.7823,0 1.4165,0.6342 1.4165,1.4165 0,0.7824 -0.6342,1.4165 -1.4165,1.4165 -0.7824,0 -1.4165,-0.6341 -1.4165,-1.4165 0,-0.7823 0.6341,-1.4165 1.4165,-1.4165 z"
       inkscape:connector-curvature="0"
       style="fill:#0088aa" /><circle
       id="circle1146"
       class="fil2"
       cx="-264.47311"
       cy="-66.638672"
       style="fill:#ffffff"
       r="1.4166" /><path
       style="fill:#0088aa;fill-rule:nonzero"
       inkscape:connector-curvature="0"
       d="m -168.98811,-67.872518 c 6.9283,0.2545 10.5141,2.3677 13.7512,6.8761 2.8263,3.9362 0.9894,11.1787 0.0815,13.5361 l -15.7089,35.380797 h -15.26271 l 5.5565,-22.4052 -15.9627,22.4052 h -15.3372 l 18.983,-42.982597 c 4.4403,-10.054 14.256,-13.1648 23.89931,-12.8104 z m 65.3903,0.0534 -20.0248,45.577497 c -2.4042,5.4722 -6.6575,9.6425 -13.9898,10.5791 -5.8152,0.743 -14.1434,0.8925 -18.8389,-2.9577 -3.5848,-2.9395 -3.2078,-9.9094 -1.6938,-14.0397 l 17.1996,-39.159197 h 13.4896 l -5.5984,22.353297 c 0,0 15.9391,-22.353297 15.9391,-22.353297 z"
       class="fil0"
       id="path1154" /><path
       sodipodi:nodetypes="ccccccccccc"
       inkscape:connector-curvature="0"
       id="path1156"
       d="m -122.18414,-11.551021 24.5004,-55.422696 23.56485,4.9e-5 22.18674,-4.9e-5 -25.01239,55.739596 -10.78049,0.27283 3.66384,-19.44653 -11.55519,12.96436 -0.28184,-14.65536 -13.80985,20.29204 z"
       style="fill:#0088aa;fill-opacity:1;stroke:none;stroke-width:0.26458332px;stroke-linecap:butt;stroke-linejoin:miter;stroke-opacity:1" /></g></svg>